<?xml version="1.0" encoding="UTF-8"?>
<svg xmlns="http://www.w3.org/2000/svg" viewBox="0 0 32 32">
  <circle cx="16" cy="16" r="16" fill="#8DC351"/>
  <path fill="#FFFFFF" d="M22 14.5c0-3.5-3.5-4-6-4l-0.5-2.5-1.5 0.5 0.5 2.5h-1l-0.5-2.5-1.5 0.5 0.5 2.5h-2.5v1.5h1l1.5 6h-1v1.5h2.5l0.5 2.5 1.5-0.5-0.5-2.5h1l0.5 2.5 1.5-0.5-0.5-2.5c4 0 5-1.5 5-3.5 0-1.5-1-2.5-2.5-3 1.5-0.5 2.5-1.5 2.5-3z M18.5 19c0 1.5-2 2-3.5 2l-1-4.5c1.5 0 4.5 1 4.5 2.5z M17.5 13.5c0 1.5-1.5 2-3 2l-0.8-3.5c1.5 0 3.8 0 3.8 1.5z"/>
</svg>
